<svg width="120" height="99" viewBox="0 0 120 99" fill="none" xmlns="http://www.w3.org/2000/svg">
<g clip-path="url(#clip0_2_7963)">
<mask id="mask0_2_7963" style="mask-type:alpha" maskUnits="userSpaceOnUse" x="-10" y="10" width="141" height="84">
<rect x="-10" y="10" width="141" height="84" fill="#C4C4C4"/>
</mask>
<g mask="url(#mask0_2_7963)">
<path d="M38.7321 47.5529C39.3842 48.5258 40.4813 49.1055 41.6406 49.1055H50.449C51.6187 49.1055 52.7055 48.5258 53.3576 47.5529L57.1045 42.0049C58.2948 40.2557 57.0424 37.875 54.9309 37.875H53.2955C52.7469 37.875 52.3122 38.3201 52.3122 38.8687C52.3122 39.5725 51.598 40.059 50.9459 39.7899L47.6026 38.3925C46.8056 38.0613 45.9154 38.0406 45.1081 38.3511L41.1438 39.8416C40.4813 40.09 39.7775 39.6036 39.7775 38.8894C39.7775 38.3304 39.3221 37.875 38.7631 37.875H37.1484C35.0369 37.875 33.7948 40.2453 34.9748 42.0049L38.7321 47.5529Z" fill="#E9E9E9" stroke="black" stroke-width="1.4413"/>
<path d="M24.5715 66.8288V78.9391C24.5715 88.8964 33.9182 96.9699 45.4488 96.9699H48.8646C60.3952 96.9699 69.7419 88.8964 69.7419 78.9391V66.8288C69.7419 56.0641 59.6293 47.3281 47.1567 47.3281C34.6841 47.3281 24.5715 56.0641 24.5715 66.8288Z" fill="white" stroke="black" stroke-width="1.4413"/>
<path d="M36.3099 45.6602H56.8456C57.8186 45.6602 58.6053 46.4468 58.6053 47.4198C58.6053 48.3927 57.8186 49.1794 56.8456 49.1794H36.3099C35.3369 49.1794 34.5503 48.3927 34.5503 47.4198C34.5503 46.4468 35.3369 45.6602 36.3099 45.6602Z" fill="black" stroke="black" stroke-width="1.4413"/>
<path d="M86.6662 68.2469C92.7771 68.2469 97.7311 63.293 97.7311 57.1821C97.7311 51.0711 92.7771 46.1172 86.6662 46.1172C80.5552 46.1172 75.6013 51.0711 75.6013 57.1821C75.6013 63.293 80.5552 68.2469 86.6662 68.2469Z" fill="white"/>
<path d="M86.6661 67.5861C92.4112 67.5861 97.0685 62.9288 97.0685 57.1837C97.0685 51.4386 92.4112 46.7812 86.6661 46.7812C80.921 46.7812 76.2637 51.4386 76.2637 57.1837C76.2637 62.9288 80.921 67.5861 86.6661 67.5861Z" fill="white" stroke="black" stroke-width="1.4413"/>
<path d="M86.6148 65.0279C90.9879 65.0279 94.5331 61.4828 94.5331 57.1097C94.5331 52.7365 90.9879 49.1914 86.6148 49.1914C82.2417 49.1914 78.6965 52.7365 78.6965 57.1097C78.6965 61.4828 82.2417 65.0279 86.6148 65.0279Z" fill="#E9E9E9"/>
<path d="M87.4837 52.8047L87.2664 54.0261" stroke="black" stroke-width="1.2872" stroke-linecap="round" stroke-linejoin="round"/>
<path d="M86.1595 60.1406L85.9421 61.362" stroke="black" stroke-width="1.2872" stroke-linecap="round" stroke-linejoin="round"/>
<path d="M84.3167 59.8104L87.0699 60.3072C87.4736 60.3797 87.898 60.2865 88.2292 60.0588C88.5708 59.8207 88.7985 59.4688 88.8709 59.0548C88.9434 58.6511 88.8502 58.2267 88.6225 57.8955C88.3845 57.5539 88.0222 57.3262 87.6185 57.2538L85.7864 56.9226C85.3828 56.8501 85.0205 56.6224 84.7824 56.2808C84.5444 55.9392 84.4616 55.5252 84.534 55.1215C84.6065 54.7179 84.8342 54.3556 85.1758 54.1175C85.5173 53.8795 85.9314 53.7967 86.335 53.8691L89.0883 54.3659" stroke="black" stroke-width="1.2872" stroke-linecap="round" stroke-linejoin="round"/>
<path d="M99.2935 43.4039C105.485 43.4039 110.503 38.3851 110.503 32.1942C110.503 26.0032 105.485 20.9844 99.2935 20.9844C93.1025 20.9844 88.0837 26.0032 88.0837 32.1942C88.0837 38.3851 93.1025 43.4039 99.2935 43.4039Z" fill="#FFCC00" stroke="black" stroke-width="1.4413"/>
<path d="M97.8555 26.5L98.2488 28.0733" stroke="black" stroke-width="1.4413" stroke-linecap="round" stroke-linejoin="round"/>
<path d="M100.236 35.9531L100.629 37.5264" stroke="black" stroke-width="1.4413" stroke-linecap="round" stroke-linejoin="round"/>
<path d="M97.8659 36.5516L101.416 35.6614C101.934 35.5268 102.389 35.1956 102.669 34.7298C102.948 34.2641 103.031 33.7155 102.896 33.1876C102.762 32.6701 102.431 32.2146 101.965 31.9455C101.499 31.666 100.95 31.5936 100.422 31.7178L98.0625 32.3181C97.545 32.4527 96.9861 32.3699 96.5203 32.0904C96.0545 31.811 95.7233 31.3659 95.5887 30.8483C95.4542 30.3308 95.537 29.7719 95.8165 29.3061C96.0959 28.8403 96.541 28.5091 97.0689 28.3745L100.619 27.4844" stroke="black" stroke-width="1.4413" stroke-linecap="round" stroke-linejoin="round"/>
<path d="M31.0926 54.1797C31.0926 54.1797 32.1173 83.1926 68.7691 85.7596C68.7691 85.7596 61.4304 98.0562 43.8861 96.1206C43.8861 96.1206 26.2485 94.8268 25.3791 79.4146L25.3584 67.5321C25.348 67.5321 24.5717 60.2038 31.0926 54.1797Z" fill="#E9E9E9"/>
<path d="M61.8447 98.5528H51.7528C49.6723 98.5528 47.9851 96.8656 47.9851 94.7851V73.4317C47.9851 71.3512 49.6723 69.6641 51.7528 69.6641H61.8447C63.9251 69.6641 65.6123 71.3512 65.6123 73.4317V94.7955C65.6123 96.8656 63.9251 98.5528 61.8447 98.5528Z" fill="white" stroke="black" stroke-width="1.443" stroke-miterlimit="10"/>
<path d="M90.5266 80.0777L100.267 70.4723C100.267 70.4723 103.744 67.8846 107.222 70.7725C110.7 73.6603 108.102 78.4837 107.222 79.1669L91.7894 96.1834C91.7894 96.1834 90.568 97.353 87.5146 97.2598L65.6125 96.2248V72.2837L79.027 72.2526C79.027 72.2526 81.2524 72.2009 82.6084 73.2877C83.9643 74.3745 90.5266 80.0777 90.5266 80.0777C90.5266 80.0777 92.3794 81.6821 91.5927 83.7522C90.8061 85.8223 87.9182 86.992 85.8171 85.1806L83.0741 82.8413" fill="white"/>
<path d="M90.5266 80.0777L100.267 70.4723C100.267 70.4723 103.744 67.8846 107.222 70.7725C110.7 73.6603 108.102 78.4837 107.222 79.1669L91.7894 96.1834C91.7894 96.1834 90.568 97.353 87.5146 97.2598L65.6125 96.2248V72.2837L79.027 72.2526C79.027 72.2526 81.2524 72.2009 82.6084 73.2877C83.9643 74.3745 90.5266 80.0777 90.5266 80.0777ZM90.5266 80.0777C90.5266 80.0777 92.3794 81.6821 91.5927 83.7522C90.8061 85.8223 87.9182 86.992 85.8171 85.1806L83.0741 82.8413" stroke="black" stroke-width="1.443" stroke-miterlimit="10"/>
<path d="M33.0903 76.5273H13.1445V82.2306H33.0903V76.5273Z" fill="white" stroke="black" stroke-width="1.4413"/>
<path d="M30.6997 82.168H10.7539V87.8712H30.6997V82.168Z" fill="#E9E9E9" stroke="black" stroke-width="1.4413"/>
<path d="M33.0903 87.8789H13.1445V93.5821H33.0903V87.8789Z" fill="#E9E9E9" stroke="black" stroke-width="1.4413"/>
<path d="M21.5398 74.5683C26.8161 74.5683 31.0934 70.291 31.0934 65.0146C31.0934 59.7383 26.8161 55.4609 21.5398 55.4609C16.2634 55.4609 11.9861 59.7383 11.9861 65.0146C11.9861 70.291 16.2634 74.5683 21.5398 74.5683Z" fill="white"/>
<path d="M21.5398 74C26.5017 74 30.5242 69.9776 30.5242 65.0156C30.5242 60.0537 26.5017 56.0312 21.5398 56.0312C16.5779 56.0312 12.5554 60.0537 12.5554 65.0156C12.5554 69.9776 16.5779 74 21.5398 74Z" fill="white" stroke="black" stroke-width="1.4413"/>
<path d="M21.4775 71.8164C25.2562 71.8164 28.3193 68.7532 28.3193 64.9746C28.3193 61.196 25.2562 58.1328 21.4775 58.1328C17.6989 58.1328 14.6357 61.196 14.6357 64.9746C14.6357 68.7532 17.6989 71.8164 21.4775 71.8164Z" fill="#E9E9E9"/>
<path d="M20.4326 61.3281L20.7535 62.3528" stroke="black" stroke-width="1.2872" stroke-linecap="round" stroke-linejoin="round"/>
<path d="M22.3269 67.4766L22.6478 68.5013" stroke="black" stroke-width="1.2872" stroke-linecap="round" stroke-linejoin="round"/>
<path d="M20.7952 67.9561L23.1034 67.2419C23.4449 67.1384 23.7244 66.9003 23.89 66.5898C24.0556 66.2793 24.0867 65.9067 23.9832 65.5651C23.8797 65.2235 23.6416 64.9441 23.3311 64.7785C23.0206 64.6128 22.6479 64.5818 22.3064 64.6853L20.7641 65.1614C20.4225 65.2649 20.0603 65.2339 19.7394 65.0683C19.4289 64.9027 19.1908 64.6232 19.0873 64.2816C18.9838 63.9401 19.0148 63.5778 19.1805 63.2569C19.3461 62.9464 19.6359 62.7083 19.9671 62.6048L22.2753 61.8906" stroke="black" stroke-width="1.2872" stroke-linecap="round" stroke-linejoin="round"/>
</g>
<path d="M1 94H119" stroke="black" stroke-width="1.4413" stroke-linecap="round"/>
</g>
<defs>
<clipPath id="clip0_2_7963">
<rect width="120" height="99" fill="white"/>
</clipPath>
</defs>
</svg>
